<svg xmlns="http://www.w3.org/2000/svg" viewBox="0 0 24 24">
<path d="M18.7,13.2l-4.4,3.5H8.5v-1.2h4.8c0.1,0,0.2,0,0.3-0.1c0.1-0.1,0.2-0.1,0.2-0.2c0.1-0.1,0.1-0.2,0.1-0.3c0-0.1,0-0.2-0.1-0.3l-1-1.6c-0.2-0.3-0.5-0.6-0.8-0.8c-0.3-0.2-0.7-0.3-1.1-0.3H1.4c-0.3,0-0.6,0.1-0.8,0.3c-0.2,0.2-0.3,0.5-0.3,0.8v7c0,0.6,0.2,1.2,0.7,1.7c0.4,0.4,1,0.7,1.7,0.7h11.3c0.5,0,1-0.1,1.5-0.3c0.5-0.2,0.9-0.5,1.2-0.9l7.2-8.2L22,12.6c-0.6-0.2-1.2-0.2-1.7-0.1C19.7,12.6,19.2,12.8,18.7,13.2z M16,12c0.9,0,1.8-0.4,2.5-1c0.7-0.7,1-1.6,1-2.5c0-3.2-3.5-7-3.5-7s-3.5,3.8-3.5,7c0,0.9,0.4,1.8,1,2.5C14.2,11.6,15.1,12,16,12z"/>
</svg>
