<svg width="40" height="40" viewBox="0 0 40 40" fill="none" xmlns="http://www.w3.org/2000/svg">
<path d="M28.3333 18.3333V8.33333C28.3333 6.5 26.8333 5 25 5H15C13.1667 5 11.6667 6.5 11.6667 8.33333V11.6667H8.33333C6.5 11.6667 5 13.1667 5 15V31.6667C5 33.5 6.5 35 8.33333 35H16.6667C17.5833 35 18.3333 34.25 18.3333 33.3333V28.3333H21.6667V33.3333C21.6667 34.25 22.4167 35 23.3333 35H31.6667C33.5 35 35 33.5 35 31.6667V21.6667C35 19.8333 33.5 18.3333 31.6667 18.3333H28.3333ZM11.6667 31.6667H8.33333V28.3333H11.6667V31.6667ZM11.6667 25H8.33333V21.6667H11.6667V25ZM11.6667 18.3333H8.33333V15H11.6667V18.3333ZM18.3333 25H15V21.6667H18.3333V25ZM18.3333 18.3333H15V15H18.3333V18.3333ZM18.3333 11.6667H15V8.33333H18.3333V11.6667ZM25 25H21.6667V21.6667H25V25ZM25 18.3333H21.6667V15H25V18.3333ZM25 11.6667H21.6667V8.33333H25V11.6667ZM31.6667 31.6667H28.3333V28.3333H31.6667V31.6667ZM31.6667 25H28.3333V21.6667H31.6667V25Z"/>
</svg>
