<svg width="40" height="40" fill="none" xmlns="http://www.w3.org/2000/svg"><path d="M28.333 18.333v-10C28.333 6.5 26.833 5 25 5H15a3.343 3.343 0 00-3.333 3.333v3.334H8.333A3.343 3.343 0 005 15v16.667C5 33.5 6.5 35 8.333 35h8.334c.916 0 1.666-.75 1.666-1.667v-5h3.334v5c0 .917.75 1.667 1.666 1.667h8.334C33.5 35 35 33.5 35 31.667v-10c0-1.834-1.5-3.334-3.333-3.334h-3.334zM11.667 31.667H8.333v-3.334h3.334v3.334zm0-6.667H8.333v-3.333h3.334V25zm0-6.667H8.333V15h3.334v3.333zM18.333 25H15v-3.333h3.333V25zm0-6.667H15V15h3.333v3.333zm0-6.666H15V8.333h3.333v3.334zM25 25h-3.333v-3.333H25V25zm0-6.667h-3.333V15H25v3.333zm0-6.666h-3.333V8.333H25v3.334zm6.667 20h-3.334v-3.334h3.334v3.334zm0-6.667h-3.334v-3.333h3.334V25z"/></svg>