<svg width="32" height="32" fill="none" xmlns="http://www.w3.org/2000/svg"><path d="M16 2.666c-7.36 0-13.333 5.973-13.333 13.333S8.64 29.333 16 29.333s13.334-5.974 13.334-13.334C29.334 8.64 23.36 2.666 16 2.666zm1.88 21.453v2.547h-3.56v-2.573c-2.28-.48-4.213-1.947-4.36-4.534h2.614c.133 1.4 1.093 2.494 3.533 2.494 2.613 0 3.2-1.307 3.2-2.12 0-1.107-.587-2.147-3.56-2.854-3.307-.8-5.573-2.16-5.573-4.893 0-2.293 1.853-3.787 4.146-4.28V5.333h3.56v2.6c2.48.6 3.72 2.48 3.8 4.52h-2.613c-.067-1.48-.853-2.494-2.96-2.494-2 0-3.2.907-3.2 2.187 0 1.12.867 1.853 3.56 2.547 2.693.693 5.573 1.853 5.573 5.213-.013 2.44-1.84 3.773-4.16 4.213z"/></svg>