<svg width="32" height="32" fill="none" xmlns="http://www.w3.org/2000/svg"><path d="M16 12.693a3.307 3.307 0 100 6.614 3.307 3.307 0 000-6.614zm13.24-3.266a8.706 8.706 0 00-.56-3.014 5.333 5.333 0 00-3.093-3.093 8.707 8.707 0 00-3.013-.56c-1.72-.093-2.227-.093-6.574-.093-4.346 0-4.853 0-6.573.093a8.707 8.707 0 00-3.013.56A5.333 5.333 0 003.32 6.413a8.706 8.706 0 00-.56 3.014c-.093 1.72-.093 2.226-.093 6.573 0 4.346 0 4.853.093 6.573a9.146 9.146 0 00.56 3.027c.267.702.68 1.338 1.214 1.866a5.17 5.17 0 001.88 1.214 8.706 8.706 0 003.013.56c1.72.093 2.227.093 6.573.093 4.347 0 4.854 0 6.574-.093a8.706 8.706 0 003.013-.56 5.186 5.186 0 001.88-1.213A5.252 5.252 0 0028.68 25.6a8.798 8.798 0 00.56-3.027c.094-1.72.094-2.227.094-6.573 0-4.347 0-4.854-.094-6.573zm-3.386 10.666a7.641 7.641 0 01-.52 2.4 5.146 5.146 0 01-2.84 2.84 7.638 7.638 0 01-2.414.467h-8.16a7.638 7.638 0 01-2.413-.467 4.68 4.68 0 01-1.747-1.146 4.68 4.68 0 01-1.093-1.694 7.32 7.32 0 01-.453-2.413v-8.16a7.32 7.32 0 01.453-2.413A4.68 4.68 0 017.814 7.76a4.787 4.787 0 011.693-1.093A7.64 7.64 0 0111.92 6.2h8.16a7.64 7.64 0 012.414.466 4.68 4.68 0 011.746 1.147 4.681 4.681 0 011.094 1.694 7.64 7.64 0 01.466 2.413V16c0 2.747.094 3.026.054 4.08v.013zm-2.134-9.92a3.172 3.172 0 00-1.88-1.88A5.333 5.333 0 0020 8h-8a5.333 5.333 0 00-1.84.347 3.174 3.174 0 00-1.88 1.813A5.694 5.694 0 008 12v8c.014.628.13 1.25.347 1.84a3.174 3.174 0 001.88 1.88 5.69 5.69 0 001.773.347h8a5.331 5.331 0 001.84-.347 3.172 3.172 0 001.88-1.88c.224-.588.34-1.211.347-1.84v-8a5.04 5.04 0 00-.347-1.84v.013zM16 21.093A5.08 5.08 0 0110.92 16 5.093 5.093 0 1116 21.093zm5.334-9.187a1.2 1.2 0 010-2.386 1.2 1.2 0 010 2.386z"/></svg>