<svg width="15" height="15" fill="none" xmlns="http://www.w3.org/2000/svg"><path d="M13.397 11.786a27.623 27.623 0 01-1.076-1.09 8.199 8.199 0 01-.469-.513L9.648 9.13c.883-1 1.37-2.288 1.37-3.622A5.515 5.515 0 005.508 0 5.515 5.515 0 000 5.508a5.515 5.515 0 005.509 5.509c1.387 0 2.652-.52 3.622-1.369l1.053 2.204s.216.176.514.469c.304.285.705.672 1.089 1.075l1.068 1.096.476.508L15 13.331l-.508-.475-1.095-1.07zM5.509 9.443a3.94 3.94 0 01-3.935-3.935 3.94 3.94 0 013.935-3.934 3.94 3.94 0 013.935 3.934 3.94 3.94 0 01-3.935 3.935z"/></svg>