<svg width="32" height="32" fill="none" xmlns="http://www.w3.org/2000/svg"><path d="M25.52 17.253c.054-.4.08-.814.08-1.254 0-.426-.026-.853-.093-1.253l2.707-2.107a.654.654 0 00.16-.813l-2.56-4.427c-.16-.293-.494-.386-.787-.293l-3.187 1.28a9.421 9.421 0 00-2.16-1.253l-.48-3.387a.645.645 0 00-.64-.547h-5.12a.632.632 0 00-.626.547l-.48 3.387c-.787.32-1.507.76-2.16 1.253l-3.187-1.28a.637.637 0 00-.787.293l-2.546 4.427c-.16.28-.107.627.16.813l2.706 2.107c-.066.4-.12.84-.12 1.253 0 .414.027.853.094 1.254l-2.707 2.106a.654.654 0 00-.16.814l2.56 4.426c.16.294.493.387.787.294l3.187-1.28a9.42 9.42 0 002.16 1.253l.48 3.387c.066.32.32.546.64.546h5.12a.62.62 0 00.626-.546l.48-3.387a9.146 9.146 0 002.16-1.253l3.187 1.28c.293.106.627 0 .787-.294l2.56-4.426c.16-.294.093-.627-.16-.814l-2.68-2.106zM16 20.799c-2.64 0-4.8-2.16-4.8-4.8 0-2.64 2.16-4.8 4.8-4.8 2.64 0 4.8 2.16 4.8 4.8 0 2.64-2.16 4.8-4.8 4.8z"/></svg>