<svg width="32" height="32" fill="none" xmlns="http://www.w3.org/2000/svg"><path d="M20.098 2.667h-8.181c-7.472 0-9.25 1.777-9.25 9.236v8.18c0 7.472 1.764 9.25 9.236 9.25h8.18c7.473 0 9.25-1.764 9.25-9.236v-8.18c0-7.473-1.763-9.25-9.235-9.25zm4.097 19.027H22.25c-.736 0-.958-.597-2.277-1.916-1.153-1.111-1.64-1.25-1.931-1.25-.403 0-.514.11-.514.666v1.75c0 .473-.153.75-1.389.75a7.59 7.59 0 01-5.93-3.555 15.501 15.501 0 01-3.07-6.445c0-.291.111-.555.667-.555H9.75c.5 0 .68.222.875.736.945 2.778 2.556 5.194 3.209 5.194.25 0 .36-.11.36-.736v-2.861c-.083-1.306-.777-1.417-.777-1.889a.48.48 0 01.5-.444h3.056c.416 0 .555.208.555.708v3.861c0 .417.18.556.306.556.25 0 .444-.14.902-.598a15.998 15.998 0 002.39-3.972.838.838 0 01.847-.555h1.944c.583 0 .708.291.583.708a24.27 24.27 0 01-2.61 4.486c-.21.32-.292.486 0 .861.194.292.874.861 1.333 1.403a8.649 8.649 0 011.638 2.278c.167.541-.11.82-.666.82z"/></svg>