<svg width="40" height="40" fill="none" xmlns="http://www.w3.org/2000/svg"><path d="M13.334 20.087c3.325 0 5.833-2.508 5.833-5.833S16.658 8.42 13.333 8.42c-3.325 0-5.833 2.509-5.833 5.834 0 3.325 2.508 5.833 5.834 5.833zM15 21.667h-3.333c-4.595 0-8.334 3.738-8.334 8.333v1.667h20V30c0-4.595-3.738-8.333-8.333-8.333zM30.607 4.394L28.25 6.75A11.604 11.604 0 0131.667 15c0 3.115-1.215 6.045-3.417 8.25l2.357 2.357A14.907 14.907 0 0035 15c0-4.005-1.56-7.771-4.393-10.606z"/><path d="M25.892 9.106l-2.357 2.36A4.954 4.954 0 0125 15c0 1.336-.52 2.591-1.465 3.533l2.357 2.36A8.278 8.278 0 0028.334 15c0-2.229-.869-4.32-2.442-5.894z"/></svg>