<svg xmlns="http://www.w3.org/2000/svg" viewBox="0 0 32 32"><path d="M18.9 18.9c-2.4 2.4-2.5 5.5-2.7 12.1 6.2 0 10.5 0 12.7-2.2C31 26.6 31 22.1 31 16.2c-6.6.2-9.7.3-12.1 2.7M1 16.2c0 6 0 10.5 2.2 12.7C5.4 31 9.6 31 15.8 31c-.2-6.6-.4-9.7-2.7-12.1-2.4-2.4-5.5-2.5-12.1-2.7M15.8 1C9.7 1 5.4 1 3.2 3.2 1 5.4 1 9.9 1 15.8c6.6-.2 9.7-.4 12.1-2.7 2.4-2.4 2.5-5.5 2.7-12.1m3.1 12.1c-2.4-2.4-2.5-5.5-2.7-12.1 6.2 0 10.5 0 12.7 2.2C31 5.4 31 9.9 31 15.8c-6.6-.2-9.7-.3-12.1-2.7"/><path fill="#fff" d="M31 16.2v-.3c-6.6-.2-9.7-.4-12.1-2.7-2.4-2.4-2.5-5.5-2.7-12.1h-.3c-.2 6.6-.4 9.7-2.7 12.1-2.4 2.4-5.5 2.5-12.1 2.7v.3c6.6.2 9.7.4 12.1 2.7 2.4 2.4 2.5 5.5 2.7 12.1h.3c.2-6.6.4-9.7 2.7-12.1 2.4-2.4 5.5-2.5 12.1-2.7"/></svg>