<svg width="56" height="56" viewBox="0 0 56 56" fill="none" xmlns="http://www.w3.org/2000/svg">
<g>
<path d="M27.9982 55.9965C43.4612 55.9965 55.9965 43.4612 55.9965 27.9982C55.9965 12.5352 43.4612 0 27.9982 0C12.5352 0 0 12.5352 0 27.9982C0 43.4612 12.5352 55.9965 27.9982 55.9965Z" fill="#00B0C8"/>
<path fill-rule="evenodd" clip-rule="evenodd" d="M27.959 28.1704L26.7544 4.76575H29.1637L27.959 28.1704Z" fill="white"/>
<path fill-rule="evenodd" clip-rule="evenodd" d="M27.959 27.9983L26.7544 51.3897H29.1637L27.959 27.9983Z" fill="white"/>
<path fill-rule="evenodd" clip-rule="evenodd" d="M28.0113 28.0511L10.6167 12.3642L12.3244 10.6565L28.0113 28.0511Z" fill="#E3000F"/>
<path fill-rule="evenodd" clip-rule="evenodd" d="M27.894 27.9319L43.5942 45.3265L45.2887 43.6188L27.894 27.9319Z" fill="white"/>
<path fill-rule="evenodd" clip-rule="evenodd" d="M27.9852 27.9982L4.58057 29.1896V26.7936L27.9852 27.9982Z" fill="white"/>
<path fill-rule="evenodd" clip-rule="evenodd" d="M27.8003 27.9982L51.205 29.1896V26.7936L27.8003 27.9982Z" fill="white"/>
<path fill-rule="evenodd" clip-rule="evenodd" d="M27.8653 27.9319L12.1784 45.3265L10.4707 43.6188L27.8653 27.9319Z" fill="white"/>
<path fill-rule="evenodd" clip-rule="evenodd" d="M27.7466 28.0511L45.1412 12.3642L43.4335 10.6565L27.7466 28.0511Z" fill="white"/>
</g>
</svg>
