<svg width="64" height="64" viewBox="0 0 64 64" fill="none" xmlns="http://www.w3.org/2000/svg">
<path d="M34.667 8C21.4137 8 10.667 18.7467 10.667 32H2.66699L13.0403 42.3733L13.227 42.7467L24.0003 32H16.0003C16.0003 21.68 24.347 13.3333 34.667 13.3333C44.987 13.3333 53.3337 21.68 53.3337 32C53.3337 42.32 44.987 50.6667 34.667 50.6667C29.5203 50.6667 24.8537 48.56 21.4937 45.1733L17.707 48.96C22.0537 53.3067 28.027 56 34.667 56C47.9203 56 58.667 45.2533 58.667 32C58.667 18.7467 47.9203 8 34.667 8ZM32.0003 21.3333V34.6667L43.4137 41.44L45.3337 38.2133L36.0003 32.6667V21.3333H32.0003Z" fill="#023047"/>
</svg>
