<svg width="624" height="477" viewBox="0 0 624 477" fill="none" xmlns="http://www.w3.org/2000/svg">
<path d="M251.798 420.236C275.619 419.999 299.16 415.073 321.077 405.739C342.994 396.404 362.857 382.844 379.534 365.833C396.21 348.822 409.373 328.692 418.27 306.594C427.167 284.496 431.625 260.862 431.388 237.041C431.151 213.221 426.225 189.68 416.891 167.763C407.556 145.846 393.996 125.982 376.985 109.306C359.974 92.6291 339.844 79.4665 317.746 70.5694C295.648 61.6723 272.014 57.2148 248.193 57.4515" stroke="#023047" stroke-width="112.983"/>
<path d="M69.6045 300.804C60.8827 278.636 56.6126 254.968 57.038 231.149C57.4634 207.331 62.576 183.83 72.0838 161.988" stroke="#00B0C8" stroke-width="112.983"/>
<path d="M72.6416 307.693C81.7219 329.717 95.0511 349.736 111.868 366.608C128.685 383.481 148.661 396.875 170.655 406.027C192.648 415.18 216.229 419.91 240.051 419.949" stroke="#045680" stroke-width="112.983"/>
<path d="M238.374 57.0895C214.554 57.4014 191.028 62.402 169.141 71.8057C147.254 81.2094 141.652 83.1672 121.635 98.7357C101.619 114.304 85.6052 130.762 76.2645 152.558" stroke="#E6F8FA" stroke-width="112.983"/>
<path d="M593.674 362.5H595.96V359.242H598.048V357.316H595.96V349.9H593.71L588.076 357.676V359.242H593.674V362.5ZM590.272 357.37V357.298L593.638 352.636H593.692V357.37H590.272ZM605.283 362.5H607.479V358.846H608.721L611.313 362.5H613.815L610.449 357.874L613.797 353.68H611.277L608.721 357.1H607.479V353.68H605.283V362.5ZM615.198 362.5H619.626C621.876 362.5 623.01 361.474 623.01 359.944C623.01 358.756 622.362 358.072 621.066 357.91V357.856C622.146 357.55 622.74 356.83 622.74 355.894C622.74 354.418 621.732 353.68 619.716 353.68H615.198V362.5ZM617.376 361.006V358.666H619.05C620.13 358.666 620.67 359.044 620.67 359.782C620.67 360.592 620.13 361.006 619.068 361.006H617.376ZM617.376 357.28V355.174H619.086C619.968 355.174 620.418 355.516 620.418 356.182C620.418 356.92 619.95 357.28 618.996 357.28H617.376Z" fill="#023047"/>
<path d="M586.216 283.47C587.098 284.478 588.718 285.162 590.428 285.162C591.832 285.162 592.966 284.82 593.812 284.118C594.658 283.416 595.072 282.516 595.072 281.418C595.072 279.78 594.1 278.682 592.57 278.538V278.448C593.254 278.304 593.83 277.944 594.298 277.368C594.766 276.81 595 276.162 595 275.424C595 273.48 593.596 272.238 590.932 272.238C589.258 272.238 587.548 272.922 586.522 274.02L587.764 275.478C588.718 274.65 589.636 274.236 590.536 274.236C591.904 274.236 592.588 274.776 592.588 275.856C592.588 276.954 591.706 277.71 590.392 277.71H589.168V279.51H590.482C591.94 279.51 592.66 280.104 592.66 281.274C592.66 282.516 591.814 283.182 590.248 283.182C589.078 283.182 588.07 282.786 587.242 281.976L586.216 283.47ZM602.746 285H604.942V281.346H606.184L608.776 285H611.278L607.912 280.374L611.26 276.18H608.74L606.184 279.6H604.942V276.18H602.746V285ZM612.66 285H617.088C619.338 285 620.472 283.974 620.472 282.444C620.472 281.256 619.824 280.572 618.528 280.41V280.356C619.608 280.05 620.202 279.33 620.202 278.394C620.202 276.918 619.194 276.18 617.178 276.18H612.66V285ZM614.838 283.506V281.166H616.512C617.592 281.166 618.132 281.544 618.132 282.282C618.132 283.092 617.592 283.506 616.53 283.506H614.838ZM614.838 279.78V277.674H616.548C617.43 277.674 617.88 278.016 617.88 278.682C617.88 279.42 617.412 279.78 616.458 279.78H614.838Z" fill="#023047"/>
<path d="M586.684 207H595.144V205.038H589.402V205.002L590.644 203.922C592.318 202.464 593.488 201.33 594.136 200.484C594.766 199.638 595.09 198.72 595.09 197.694C595.09 196.002 594.262 194.238 591.094 194.238C589.006 194.238 587.368 195.21 586.522 196.308L587.854 197.694C588.754 196.722 589.69 196.236 590.662 196.236C592.012 196.236 592.642 196.974 592.642 197.982C592.642 198.756 592.426 199.458 591.976 200.124C591.526 200.79 590.536 201.816 589.006 203.166L586.684 205.236V207ZM602.834 207H605.03V203.346H606.272L608.864 207H611.366L608 202.374L611.348 198.18H608.828L606.272 201.6H605.03V198.18H602.834V207ZM612.748 207H617.176C619.426 207 620.56 205.974 620.56 204.444C620.56 203.256 619.912 202.572 618.616 202.41V202.356C619.696 202.05 620.29 201.33 620.29 200.394C620.29 198.918 619.282 198.18 617.266 198.18H612.748V207ZM614.926 205.506V203.166H616.6C617.68 203.166 618.22 203.544 618.22 204.282C618.22 205.092 617.68 205.506 616.618 205.506H614.926ZM614.926 201.78V199.674H616.636C617.518 199.674 617.968 200.016 617.968 200.682C617.968 201.42 617.5 201.78 616.546 201.78H614.926Z" fill="#023047"/>
<path d="M589.064 128.5H591.35V115.9H589.37L585.536 118.15L586.454 119.68L589.064 118.168V128.5ZM599.75 128.5H601.946V124.846H603.188L605.78 128.5H608.282L604.916 123.874L608.264 119.68H605.744L603.188 123.1H601.946V119.68H599.75V128.5ZM609.664 128.5H614.092C616.342 128.5 617.476 127.474 617.476 125.944C617.476 124.756 616.828 124.072 615.532 123.91V123.856C616.612 123.55 617.206 122.83 617.206 121.894C617.206 120.418 616.198 119.68 614.182 119.68H609.664V128.5ZM611.842 127.006V124.666H613.516C614.596 124.666 615.136 125.044 615.136 125.782C615.136 126.592 614.596 127.006 613.534 127.006H611.842ZM611.842 123.28V121.174H613.552C614.434 121.174 614.884 121.516 614.884 122.182C614.884 122.92 614.416 123.28 613.462 123.28H611.842Z" fill="#023047"/>
<circle cx="547" cy="355" r="23" transform="rotate(180 547 355)" fill="#E6F8FA"/>
<circle cx="547" cy="277" r="23" transform="rotate(180 547 277)" fill="#00B0C8"/>
<circle cx="547" cy="199" r="23" transform="rotate(180 547 199)" fill="#04567F"/>
<circle cx="547" cy="121" r="23" transform="rotate(180 547 121)" fill="#023047"/>
</svg>
