<svg width="66" height="66" viewBox="0 0 66 66" fill="none" xmlns="http://www.w3.org/2000/svg">
<path d="M47.1451 15.1791C45.8585 13.8834 44.3286 12.8549 42.6431 12.1525C40.9577 11.4501 39.15 11.0878 37.3241 11.0864C33.8704 11.087 30.5428 12.3844 28.0001 14.7218C25.4577 12.384 22.1299 11.0865 18.6761 11.0864C16.848 11.0883 15.0384 11.4517 13.3513 12.1557C11.6642 12.8597 10.133 13.8904 8.84578 15.1884C3.35545 20.7021 3.35778 29.3261 8.85045 34.8164L28.0001 53.9661L47.1498 34.8164C52.6425 29.3261 52.6448 20.7021 47.1451 15.1791Z" fill="#023047"/>
<path d="M56.1451 19.1791C54.8585 17.8834 53.3286 16.8549 51.6431 16.1525C49.9577 15.4501 48.15 15.0878 46.3241 15.0864C42.8704 15.087 39.5428 16.3844 37.0001 18.7218C34.4577 16.384 31.1299 15.0865 27.6761 15.0864C25.848 15.0883 24.0384 15.4517 22.3513 16.1557C20.6642 16.8597 19.133 17.8904 17.8458 19.1884C12.3555 24.7021 12.3578 33.3261 17.8505 38.8164L37.0001 57.9661L56.1498 38.8164C61.6425 33.3261 61.6448 24.7021 56.1451 19.1791Z" fill="#EAE7FF"/>
</svg>
