<?xml version="1.0" standalone="no"?>
<!DOCTYPE svg PUBLIC "-//W3C//DTD SVG 20010904//EN"
 "http://www.w3.org/TR/2001/REC-SVG-20010904/DTD/svg10.dtd">
<svg version="1.0" xmlns="http://www.w3.org/2000/svg"
 width="700.000000pt" height="700.000000pt" viewBox="0 0 700.000000 700.000000"
 preserveAspectRatio="xMidYMid meet">
<metadata>
Created by potrace 1.14, written by Peter Selinger 2001-2017
</metadata>
<g transform="translate(0.000000,700.000000) scale(0.100000,-0.100000)"
fill="#000000" stroke="none">
<path d="M3295 6990 c-1060 -67 -2001 -584 -2630 -1445 -351 -482 -570 -1051
-641 -1670 -22 -192 -22 -554 0 -750 91 -803 436 -1524 1001 -2090 582 -583
1320 -932 2145 -1015 148 -15 512 -15 660 0 820 82 1563 432 2140 1010 703
703 1067 1647 1019 2645 -59 1235 -765 2339 -1870 2924 -541 286 -1210 430
-1824 391z m355 -587 c0 -5 -34 -649 -74 -1433 -41 -784 -73 -1426 -72 -1427
2 -2 1812 2002 1893 2095 l32 37 108 -108 c83 -82 106 -110 98 -121 -6 -8
-489 -446 -1074 -973 l-1063 -958 43 -3 c24 -1 656 29 1404 68 748 38 1381 70
1407 70 l48 0 0 -150 0 -150 -27 0 c-16 0 -647 32 -1403 70 -756 39 -1392 69
-1413 68 -38 -3 -37 -4 1004 -943 573 -517 1056 -952 1073 -966 l31 -27 -101
-108 c-56 -60 -106 -109 -111 -109 -5 0 -445 483 -978 1073 -532 590 -970
1071 -972 1069 -3 -3 129 -2620 143 -2814 l6 -93 -156 0 c-86 0 -156 1 -156 3
0 1 34 657 75 1456 41 800 73 1456 71 1459 -3 2 -9 2 -14 -1 -4 -3 -445 -490
-978 -1081 l-969 -1075 -110 110 -110 110 31 27 c17 15 500 450 1074 967 929
839 1039 940 1013 943 -22 2 -1074 -50 -2725 -134 l-128 -7 0 152 0 151 38 0
c20 1 675 -32 1454 -72 780 -39 1419 -70 1422 -67 3 3 -28 653 -69 1444 -41
792 -75 1443 -75 1448 0 4 70 7 155 7 85 0 155 -3 155 -7z"/>
</g>
</svg>
