<svg version="1.0" xmlns="http://www.w3.org/2000/svg" width="933.333" height="933.333" viewBox="0 0 700 700"><path d="M329.5 1c-106 6.7-200.1 58.4-263 144.5-35.1 48.2-57 105.1-64.1 167-2.2 19.2-2.2 55.4 0 75 9.1 80.3 43.6 152.4 100.1 209 58.2 58.3 132 93.2 214.5 101.5 14.8 1.5 51.2 1.5 66 0 82-8.2 156.3-43.2 214-101 70.3-70.3 106.7-164.7 101.9-264.5C693 209 622.4 98.6 511.9 40.1c-54.1-28.6-121-43-182.4-39.1zM365 59.7c0 .5-3.4 64.9-7.4 143.3-4.1 78.4-7.3 142.6-7.2 142.7.2.2 181.2-200.2 189.3-209.5l3.2-3.7 10.8 10.8c8.3 8.2 10.6 11 9.8 12.1-.6.8-48.9 44.6-107.4 97.3l-106.3 95.8 4.3.3c2.4.1 65.6-2.9 140.4-6.8 74.8-3.8 138.1-7 140.7-7h4.8v30h-2.7c-1.6 0-64.7-3.2-140.3-7-75.6-3.9-139.2-6.9-141.3-6.8-3.8.3-3.7.4 100.4 94.3 57.3 51.7 105.6 95.2 107.3 96.6l3.1 2.7-10.1 10.8c-5.6 6-10.6 10.9-11.1 10.9s-44.5-48.3-97.8-107.3c-53.2-59-97-107.1-97.2-106.9-.3.3 12.9 262 14.3 281.4l.6 9.3h-15.6c-8.6 0-15.6-.1-15.6-.3 0-.1 3.4-65.7 7.5-145.6 4.1-80 7.3-145.6 7.1-145.9-.3-.2-.9-.2-1.4.1-.4.3-44.5 49-97.8 108.1l-96.9 107.5-11-11-11-11 3.1-2.7c1.7-1.5 50-45 107.4-96.7 92.9-83.9 103.9-94 101.3-94.3-2.2-.2-107.4 5-272.5 13.4l-12.8.7V335h3.8c2-.1 67.5 3.2 145.4 7.2 78 3.9 141.9 7 142.2 6.7.3-.3-2.8-65.3-6.9-144.4-4.1-79.2-7.5-144.3-7.5-144.8 0-.4 7-.7 15.5-.7s15.5.3 15.5.7z"/></svg>