<svg width="66" height="66" viewBox="0 0 66 66" fill="none" xmlns="http://www.w3.org/2000/svg">
<rect x="5" y="9" width="46" height="38" rx="4" fill="#023047"/>
<g>
<path d="M56.941 18.6157H20.7057C18.2145 18.6157 16.1989 20.748 16.1989 23.3542L16.1763 51.785C16.1763 54.3911 18.2145 56.5234 20.7057 56.5234H56.941C59.4322 56.5234 61.4704 54.3911 61.4704 51.785V23.3542C61.4704 20.748 59.4322 18.6157 56.941 18.6157ZM56.0351 28.685L40.0236 39.157C39.2989 39.6308 38.3477 39.6308 37.623 39.157L21.6116 28.685C21.0454 28.3059 20.7057 27.6662 20.7057 26.9791C20.7057 25.3917 22.3589 24.444 23.6498 25.2733L38.8233 35.2003L53.9969 25.2733C55.2877 24.444 56.941 25.3917 56.941 26.9791C56.941 27.6662 56.6013 28.3059 56.0351 28.685Z" fill="#EAE7FF"/>
</g>
</svg>
