<svg width="66" height="66" viewBox="0 0 66 66" fill="none" xmlns="http://www.w3.org/2000/svg">
<path d="M50.6333 24.034L29.6333 5.36729C28.7 4.66729 27.5333 4.66729 26.6 5.36729L5.59995 24.034C4.66662 24.9673 4.43329 26.3673 5.36662 27.3006C6.29995 28.234 7.69995 28.4673 8.63329 27.534L9.33329 26.6006V49.0006C9.33329 50.4006 10.2666 51.334 11.6666 51.334H44.3333C45.7333 51.334 46.6666 50.4006 46.6666 49.0006V26.6006L47.3666 27.3006C48.3 28.234 49.7 28.0006 50.6333 27.0673C51.5666 26.3673 51.5666 24.734 50.6333 24.034ZM32.6666 35.0006H30.3333V37.334C30.3333 38.734 29.4 39.6673 28 39.6673C26.6 39.6673 25.6666 38.734 25.6666 37.334V35.0006H23.3333C21.9333 35.0006 21 34.0673 21 32.6673C21 31.2673 21.9333 30.334 23.3333 30.334H25.6666V28.0006C25.6666 26.6006 26.6 25.6673 28 25.6673C29.4 25.6673 30.3333 26.6006 30.3333 28.0006V30.334H32.6666C34.0666 30.334 35 31.2673 35 32.6673C35 34.0673 34.0666 35.0006 32.6666 35.0006Z" fill="#023047"/>
<path d="M60.6333 29.034L39.6333 10.3673C38.7 9.66729 37.5333 9.66729 36.6 10.3673L15.6 29.034C14.6666 29.9673 14.4333 31.3673 15.3666 32.3006C16.3 33.234 17.7 33.4673 18.6333 32.534L19.3333 31.6006V54.0006C19.3333 55.4006 20.2666 56.334 21.6666 56.334H54.3333C55.7333 56.334 56.6666 55.4006 56.6666 54.0006V31.6006L57.3666 32.3006C58.3 33.234 59.7 33.0006 60.6333 32.0673C61.5666 31.3673 61.5666 29.734 60.6333 29.034ZM42.6666 40.0006H40.3333V42.334C40.3333 43.734 39.4 44.6673 38 44.6673C36.6 44.6673 35.6666 43.734 35.6666 42.334V40.0006H33.3333C31.9333 40.0006 31 39.0673 31 37.6673C31 36.2673 31.9333 35.334 33.3333 35.334H35.6666V33.0006C35.6666 31.6006 36.6 30.6673 38 30.6673C39.4 30.6673 40.3333 31.6006 40.3333 33.0006V35.334H42.6666C44.0666 35.334 45 36.2673 45 37.6673C45 39.0673 44.0666 40.0006 42.6666 40.0006Z" fill="#EAE7FF"/>
</svg>
