<svg width="68" height="66" viewBox="0 0 68 66" fill="none" xmlns="http://www.w3.org/2000/svg">
<path d="M39.6666 3.35683L16.3333 3.3335C13.7666 3.3335 11.6899 5.4335 11.6899 8.00016V50.0002C11.6899 52.5668 13.7666 54.6668 16.3333 54.6668H39.6666C42.2333 54.6668 44.3333 52.5668 44.3333 50.0002V8.00016C44.3333 5.4335 42.2333 3.35683 39.6666 3.35683ZM39.6666 45.3335H16.3333V12.6668H39.6666V45.3335Z" fill="#023047"/>
<rect x="11" y="3" width="33" height="52" rx="4" fill="#023047"/>
<path d="M51.6666 12.3568L28.3333 12.3335C25.7666 12.3335 23.6899 14.4335 23.6899 17.0002V59.0002C23.6899 61.5668 25.7666 63.6668 28.3333 63.6668H51.6666C54.2333 63.6668 56.3333 61.5668 56.3333 59.0002V17.0002C56.3333 14.4335 54.2333 12.3568 51.6666 12.3568ZM51.6666 54.3335H28.3333V21.6668H51.6666V54.3335Z" fill="#EAE7FF"/>
</svg>
