<svg width="64" height="64" viewBox="0 0 64 64" fill="none" xmlns="http://www.w3.org/2000/svg">
<path d="M45.333 10.6666H53.333C56.2663 10.6666 58.6663 13.0666 58.6663 16V21.3333H53.333V16H45.333V10.6666ZM10.6663 21.3333V16H18.6663V10.6666H10.6663C7.73301 10.6666 5.33301 13.0666 5.33301 16V21.3333H10.6663ZM53.333 42.6666V48H45.333V53.3333H53.333C56.2663 53.3333 58.6663 50.9333 58.6663 48V42.6666H53.333ZM18.6663 48H10.6663V42.6666H5.33301V48C5.33301 50.9333 7.73301 53.3333 10.6663 53.3333H18.6663V48ZM47.9997 21.3333H15.9997V42.6666H47.9997V21.3333Z" fill="#023047"/>
</svg>
