<svg width="64" height="64" viewBox="0 0 64 64" fill="none" xmlns="http://www.w3.org/2000/svg">
<path d="M47.0937 21.3333L32.0003 6.2666L16.907 21.3333C12.747 25.4933 10.667 31.0399 10.667 36.3733C10.667 41.7066 12.747 47.3333 16.907 51.4933C21.067 55.6533 26.5337 57.7599 32.0003 57.7599C37.467 57.7599 42.9337 55.6533 47.0937 51.4933C51.2537 47.3333 53.3337 41.7066 53.3337 36.3733C53.3337 31.0399 51.2537 25.4933 47.0937 21.3333ZM16.0003 37.3333C16.027 31.9999 17.6537 28.6133 20.6937 25.5999L32.0003 14.0533L43.307 25.7333C46.347 28.7199 47.9737 31.9999 48.0003 37.3333H16.0003Z" fill="#023047"/>
</svg>
