<svg width="254" height="56" viewBox="0 0 254 56" fill="none" xmlns="http://www.w3.org/2000/svg">
<g>
<path d="M27.9982 55.9965C43.4612 55.9965 55.9965 43.4612 55.9965 27.9982C55.9965 12.5352 43.4612 0 27.9982 0C12.5352 0 0 12.5352 0 27.9982C0 43.4612 12.5352 55.9965 27.9982 55.9965Z" fill="#00B0C8"/>
<path fill-rule="evenodd" clip-rule="evenodd" d="M27.959 28.1704L26.7544 4.76575H29.1637L27.959 28.1704Z" fill="white"/>
<path fill-rule="evenodd" clip-rule="evenodd" d="M27.959 27.9983L26.7544 51.3897H29.1637L27.959 27.9983Z" fill="white"/>
<path fill-rule="evenodd" clip-rule="evenodd" d="M28.0113 28.0511L10.6167 12.3642L12.3244 10.6565L28.0113 28.0511Z" fill="#E3000F"/>
<path fill-rule="evenodd" clip-rule="evenodd" d="M27.894 27.9319L43.5942 45.3265L45.2887 43.6188L27.894 27.9319Z" fill="white"/>
<path fill-rule="evenodd" clip-rule="evenodd" d="M27.9852 27.9982L4.58057 29.1896V26.7936L27.9852 27.9982Z" fill="white"/>
<path fill-rule="evenodd" clip-rule="evenodd" d="M27.8003 27.9982L51.205 29.1896V26.7936L27.8003 27.9982Z" fill="white"/>
<path fill-rule="evenodd" clip-rule="evenodd" d="M27.8653 27.9319L12.1784 45.3265L10.4707 43.6188L27.8653 27.9319Z" fill="white"/>
<path fill-rule="evenodd" clip-rule="evenodd" d="M27.7466 28.0511L45.1412 12.3642L43.4335 10.6565L27.7466 28.0511Z" fill="white"/>
</g>
<path fill-rule="evenodd" clip-rule="evenodd" d="M71.8575 24.6665C71.3109 24.6795 70.7676 24.5793 70.2616 24.3721C69.7557 24.1649 69.2981 23.8552 68.9177 23.4626C68.3514 22.8743 67.9689 22.1337 67.8169 21.3315C67.6649 20.5292 67.7501 19.7 68.0621 18.9454C68.374 18.1908 68.8992 17.5435 69.5733 17.0827C70.2473 16.622 71.0411 16.3677 71.8575 16.351C72.4628 16.3345 73.0645 16.4491 73.6214 16.687C74.1454 16.9229 74.6203 17.2553 75.0213 17.6669L73.9714 18.8708C73.6814 18.604 73.3564 18.378 73.0054 18.1989C72.6478 18.0246 72.2553 17.9337 71.8575 17.9329C71.5423 17.9264 71.2296 17.9895 70.9417 18.1177C70.6537 18.246 70.3976 18.4362 70.1916 18.6749C69.7509 19.1658 69.5154 19.8072 69.5337 20.4667C69.5196 21.1256 69.7546 21.7654 70.1916 22.2586C70.3983 22.4955 70.6549 22.6836 70.9429 22.8095C71.231 22.9353 71.5433 22.9958 71.8575 22.9866C72.243 22.9981 72.626 22.9215 72.9774 22.7626C73.34 22.5715 73.6745 22.3312 73.9714 22.0486L75.1053 23.2526C74.7109 23.6861 74.2353 24.0381 73.7054 24.2885C73.1101 24.5293 72.4713 24.6437 71.8295 24.6245L71.8575 24.6665ZM76.5612 24.5265V16.533H82.6228V18.1009H78.2691V19.7388H82.0489V21.3067H78.2691V22.9866H82.6228V24.5685L76.5612 24.5265ZM84.2607 24.5265V16.533H87.9845C88.3647 16.5027 88.747 16.5504 89.1081 16.6732C89.4692 16.7959 89.8014 16.9912 90.0844 17.2469C90.2716 17.4273 90.4183 17.6453 90.5149 17.8867C90.6114 18.128 90.6555 18.3872 90.6443 18.6469C90.6512 19.0076 90.5546 19.3627 90.3661 19.6703C90.1776 19.9779 89.9049 20.2251 89.5804 20.3827C90.0184 20.5232 90.4103 20.7796 90.7143 21.1247C90.9796 21.4843 91.1131 21.9242 91.0923 22.3706C91.1103 22.6925 91.0451 23.0136 90.9029 23.303C90.7606 23.5923 90.5462 23.8402 90.2804 24.0225C89.6209 24.4265 88.8548 24.6216 88.0825 24.5825L84.2607 24.5265ZM85.9826 19.7388H87.6065C88.4605 19.7388 88.8804 19.4448 88.8804 18.8708C88.8881 18.7516 88.8651 18.6324 88.8136 18.5246C88.7622 18.4168 88.6839 18.3239 88.5865 18.2549C88.3252 18.0983 88.0224 18.025 87.7185 18.0449H85.9266V19.7388H85.9826ZM85.9826 22.9726H88.0825C88.9084 22.9726 89.3284 22.6786 89.3284 22.0766C89.3284 21.4747 88.8944 21.2087 88.0265 21.2087H85.9266V22.9726H85.9826ZM92.5482 24.5265V16.533H98.6098V18.1009H94.2561V19.7388H98.0359V21.3067H94.2561V22.9866H98.6238V24.5685L92.5482 24.5265ZM100.234 24.5265V16.533H103.524C104.342 16.487 105.146 16.7634 105.763 17.3029C106.03 17.566 106.237 17.8835 106.37 18.2338C106.503 18.5841 106.559 18.959 106.533 19.3328C106.556 19.7275 106.485 20.122 106.327 20.4843C106.169 20.8467 105.928 21.1667 105.623 21.4187C104.954 21.9301 104.127 22.1924 103.286 22.1606H101.886V24.5685L100.234 24.5265ZM101.998 20.5367H103.398C103.773 20.5601 104.143 20.44 104.433 20.2008C104.555 20.0863 104.65 19.9471 104.713 19.7924C104.776 19.6378 104.805 19.4715 104.797 19.3048C104.808 19.1344 104.779 18.9638 104.714 18.806C104.648 18.6483 104.548 18.5077 104.419 18.3949C104.117 18.1717 103.745 18.0626 103.37 18.0869H101.97V20.5367H101.998ZM114.863 23.4486C114.037 24.2262 112.945 24.6592 111.811 24.6592C110.677 24.6592 109.585 24.2262 108.759 23.4486C108.365 23.0657 108.053 22.606 107.844 22.0979C107.634 21.5899 107.531 21.0442 107.541 20.4947C107.533 19.9462 107.638 19.4019 107.85 18.896C108.062 18.39 108.376 17.9334 108.773 17.5549C109.599 16.7773 110.691 16.3442 111.825 16.3442C112.959 16.3442 114.051 16.7773 114.877 17.5549C115.651 18.3406 116.084 19.399 116.084 20.5017C116.084 21.6044 115.651 22.6629 114.877 23.4486H114.863ZM110.089 22.3006C110.316 22.5309 110.586 22.7137 110.884 22.8386C111.182 22.9634 111.502 23.0277 111.825 23.0277C112.148 23.0277 112.468 22.9634 112.766 22.8386C113.064 22.7137 113.334 22.5309 113.561 22.3006C114.009 21.8133 114.25 21.1707 114.233 20.5087C114.249 19.8444 114.003 19.2003 113.547 18.7168C113.325 18.4615 113.049 18.2587 112.739 18.1232C112.429 17.9876 112.093 17.9226 111.755 17.9329C111.429 17.9228 111.105 17.9839 110.805 18.1121C110.505 18.2402 110.237 18.4323 110.019 18.6749C109.573 19.1648 109.325 19.8038 109.325 20.4667C109.325 21.1297 109.573 21.7687 110.019 22.2586L110.089 22.3006ZM117.271 21.8107V20.1308H120.798V21.8107H117.271ZM125.194 16.351C125.941 16.3195 126.677 16.5307 127.294 16.953C127.547 17.1245 127.754 17.3563 127.896 17.6275C128.038 17.8987 128.11 18.2009 128.106 18.5069C128.113 18.9131 127.99 19.3109 127.756 19.643C127.522 19.9751 127.189 20.2243 126.804 20.3547C127.237 20.4431 127.626 20.6806 127.902 21.0259C128.178 21.3712 128.325 21.8025 128.316 22.2446C128.324 22.5799 128.252 22.9121 128.105 23.2139C127.959 23.5158 127.744 23.7785 127.476 23.9805C126.845 24.4674 126.06 24.7109 125.264 24.6665C124.559 24.6861 123.856 24.5721 123.192 24.3305C122.631 24.0976 122.122 23.7549 121.694 23.3226L122.632 22.0906C122.968 22.4256 123.368 22.6889 123.808 22.8646C124.249 23.0403 124.72 23.1246 125.194 23.1126C125.534 23.1267 125.87 23.0389 126.16 22.8606C126.265 22.7724 126.346 22.6599 126.397 22.5331C126.449 22.4062 126.468 22.2687 126.454 22.1326C126.461 21.9857 126.425 21.8398 126.351 21.713C126.276 21.5862 126.166 21.4839 126.034 21.4187C125.665 21.2517 125.262 21.1749 124.858 21.1947H123.934V19.7388H124.844C125.796 19.7388 126.244 19.4308 126.244 18.8008C126.248 18.6721 126.218 18.5447 126.156 18.4316C126.095 18.3185 126.004 18.2237 125.894 18.1569C125.64 18.0066 125.349 17.9291 125.054 17.9329C124.651 17.9208 124.25 17.993 123.876 18.1449C123.503 18.2967 123.165 18.5249 122.884 18.8148L121.946 17.6809C122.359 17.2425 122.862 16.8981 123.42 16.671C123.978 16.4439 124.578 16.3396 125.18 16.365L125.194 16.351ZM129.156 24.5265L132.6 16.435H134.238L137.653 24.5265H135.777L135.036 22.7206H131.648L130.906 24.5265H129.156ZM132.334 21.1667H134.462L133.398 18.5489L132.334 21.1667ZM138.913 24.5265V16.533H145.619V24.5685H143.855V18.1289H140.691V24.5685L138.913 24.5265ZM146.865 24.5265L150.253 16.435H151.876L155.32 24.5265H153.472L152.744 22.7206H149.343L148.601 24.5265H146.865ZM150.029 21.1667H152.156L151.093 18.5489L150.029 21.1667ZM155.768 26.2064V22.9306H156.524C156.842 22.1912 157.068 21.4154 157.196 20.6207C157.353 19.5643 157.424 18.4968 157.406 17.4289V16.533H163.244V22.9726H164.21L163.986 26.2484H162.502V24.5685H157.476L157.364 26.2484L155.768 26.2064ZM161.48 18.0869H159.1V18.8988C159.124 20.2762 158.882 21.6453 158.386 22.9306H161.452V18.0869H161.48ZM165.456 24.5265V16.533H167.22V19.7108H170.481V16.533H172.245V24.5685H170.481V21.2927H167.22V24.5265H165.456ZM174.177 24.5265V16.533H175.941V19.2628H177.649C178.434 19.2197 179.207 19.4691 179.819 19.9628C180.077 20.2055 180.28 20.5014 180.413 20.8301C180.546 21.1588 180.606 21.5125 180.589 21.8667C180.606 22.235 180.542 22.6027 180.402 22.9438C180.262 23.2849 180.048 23.591 179.777 23.8405C179.146 24.3513 178.348 24.6106 177.537 24.5685L174.177 24.5265ZM177.453 20.7327H175.885V22.9306H177.467C178.349 22.9306 178.783 22.5526 178.783 21.8107C178.783 21.0687 178.335 20.7327 177.453 20.7327ZM181.429 24.5265V16.533H183.206V24.5685L181.429 24.5265ZM192.054 16.533V24.5685H190.304V19.2488L186.79 24.5265H185.124V16.533H186.874V21.7967L190.416 16.533H192.054ZM189.926 15.4691C189.561 15.7709 189.098 15.9301 188.624 15.917C188.15 15.9353 187.685 15.7756 187.322 15.4691C186.959 15.1331 186.735 14.6739 186.692 14.1811L187.714 13.9991C187.742 14.2193 187.849 14.4218 188.015 14.5686C188.181 14.7154 188.395 14.7964 188.617 14.7964C188.839 14.7964 189.053 14.7154 189.219 14.5686C189.386 14.4218 189.493 14.2193 189.52 13.9991L190.542 14.1811C190.498 14.6705 190.28 15.1277 189.926 15.4691ZM203.379 26.2484V24.5685H197.43V16.533H199.249V22.9726H202.413V16.533H204.177V22.9726H205.129L204.849 26.2064L203.379 26.2484ZM206.319 24.5685V16.533H212.381V18.1009H208.069V19.7388H211.849V21.3067H208.069V22.9866H212.437V24.5685H206.319ZM214.005 24.5685V16.533H215.782V19.7108H219.03V16.533H220.808V24.5685H219.03V21.2927H215.782V24.5265L214.005 24.5685ZM224.602 24.5685V18.1149H222.152V16.533H228.816V18.1569H226.366V24.5685H224.602ZM230.202 24.5685V16.533H233.477C234.3 16.4848 235.11 16.7612 235.731 17.3029C236.006 17.5626 236.222 17.8782 236.364 18.2283C236.507 18.5785 236.572 18.9551 236.557 19.3328C236.577 19.7285 236.504 20.1234 236.343 20.4856C236.183 20.8479 235.94 21.1674 235.633 21.4187C234.969 21.9301 234.147 22.1927 233.309 22.1606H231.909V24.5685H230.202ZM231.965 20.5787H233.365C233.549 20.5929 233.734 20.5705 233.91 20.5128C234.085 20.4552 234.248 20.3634 234.387 20.2428C234.511 20.129 234.608 19.9902 234.673 19.8357C234.738 19.6812 234.77 19.5145 234.765 19.3468C234.776 19.1764 234.747 19.0058 234.682 18.848C234.616 18.6903 234.516 18.5497 234.387 18.4369C234.085 18.2137 233.713 18.1046 233.337 18.1289H231.937V20.5787H231.965ZM67.1958 41.9274V38.6516H67.9518C68.2637 37.91 68.4892 37.1349 68.6237 36.3417C68.7809 35.2853 68.8512 34.2178 68.8337 33.1499V32.212H74.6573V38.6516H75.6233L75.3993 41.9274H73.9294V40.2475H68.9037L68.7917 41.9274H67.1958ZM72.9074 33.8079H70.5276V34.6198C70.5518 35.9972 70.3094 37.3663 69.8136 38.6516H72.9074V33.8079ZM83.8408 39.1696C83.0149 39.9472 81.9233 40.3803 80.7889 40.3803C79.6546 40.3803 78.563 39.9472 77.7371 39.1696C77.3429 38.7867 77.0314 38.327 76.8219 37.8189C76.6124 37.3109 76.5094 36.7652 76.5192 36.2157C76.5072 35.6668 76.6106 35.1214 76.8229 34.615C77.0351 34.1085 77.3513 33.6523 77.7511 33.2759C78.577 32.4983 79.6686 32.0652 80.8029 32.0652C81.9373 32.0652 83.0289 32.4983 83.8548 33.2759C84.2445 33.6615 84.5521 34.122 84.759 34.6296C84.9659 35.1373 85.0678 35.6816 85.0587 36.2297C85.0682 36.7771 84.965 37.3206 84.7555 37.8263C84.546 38.3321 84.2346 38.7893 83.8408 39.1696ZM79.0531 38.0216C79.2767 38.2598 79.5483 38.4479 79.8499 38.5733C80.1515 38.6988 80.4764 38.7589 80.8029 38.7496C81.1277 38.7605 81.4509 38.7012 81.7505 38.5755C82.0501 38.4499 82.3191 38.2609 82.5388 38.0216C82.9767 37.5275 83.2185 36.89 83.2185 36.2297C83.2185 35.5695 82.9767 34.932 82.5388 34.4379C82.3164 34.1982 82.045 34.0092 81.743 33.8836C81.4411 33.758 81.1158 33.6988 80.7889 33.7099C80.4663 33.6991 80.1452 33.7586 79.8479 33.8843C79.5505 34.0101 79.2841 34.1989 79.0671 34.4379C78.8393 34.6759 78.6614 34.957 78.5436 35.2647C78.4258 35.5724 78.3706 35.9005 78.3811 36.2297C78.3705 36.8931 78.6162 37.535 79.0671 38.0216H79.0531ZM86.6406 40.2475V32.212H88.4045V35.7258L91.6663 32.212H93.7941L90.5323 35.6138L93.9481 40.2475H91.8203L89.3284 36.8317L88.4045 37.7837V40.2475H86.6406ZM94.3261 40.2475L97.7699 32.156H99.3938L102.838 40.2475H100.99L100.262 38.4416H96.8599L96.132 40.2475H94.3261ZM97.4899 36.8877H99.6318L98.5538 34.2839L97.4899 36.8877ZM106.939 32.072C107.688 32.0425 108.425 32.2589 109.039 32.688C109.289 32.8589 109.492 33.0889 109.632 33.3576C109.771 33.6263 109.841 33.9253 109.837 34.2279C109.859 34.6422 109.745 35.0524 109.513 35.3961C109.28 35.7398 108.942 35.9981 108.549 36.1318C108.982 36.2234 109.37 36.4642 109.643 36.8121C109.917 37.1601 110.06 37.5931 110.047 38.0356C110.053 38.3672 109.982 38.6955 109.838 38.9944C109.695 39.2934 109.483 39.5547 109.221 39.7575C108.569 40.2024 107.781 40.4054 106.995 40.3315C106.294 40.3493 105.596 40.2354 104.937 39.9955C104.37 39.7663 103.855 39.4233 103.426 38.9876L104.363 37.7557C104.699 38.09 105.1 38.3529 105.54 38.5285C105.98 38.7041 106.451 38.7888 106.925 38.7776C107.265 38.7917 107.602 38.7039 107.891 38.5256C108.013 38.4506 108.113 38.3454 108.181 38.2203C108.25 38.0952 108.285 37.9544 108.283 37.8116C108.289 37.6632 108.251 37.5163 108.174 37.3893C108.097 37.2623 107.984 37.1609 107.849 37.0977C107.486 36.9292 107.087 36.8523 106.687 36.8737H105.763V35.4598H106.659C107.625 35.4598 108.059 35.1518 108.059 34.5359C108.061 34.404 108.029 34.2738 107.965 34.1584C107.901 34.043 107.808 33.9463 107.695 33.8779C107.415 33.7025 107.087 33.6193 106.757 33.6399C106.354 33.6287 105.953 33.7013 105.58 33.8531C105.206 34.0049 104.868 34.2326 104.587 34.5219L103.706 33.3319C104.123 32.8992 104.626 32.5586 105.183 32.332C105.74 32.1054 106.338 31.9978 106.939 32.016V32.072ZM110.901 40.2475L114.345 32.156H115.969L119.455 40.2475H117.565L116.837 38.4416H113.435L112.707 40.2475H110.901ZM114.065 36.8877H116.207L115.129 34.2839L114.065 36.8877ZM122.464 40.2475V33.8359H120.084V32.212H126.734V33.8359H124.298V40.2475H122.464ZM128.064 40.2475V32.212H134.154V33.7799H129.856V35.4178H133.636V36.9857H129.856V38.6796H134.21V40.2475H128.064ZM136.827 32.212H142.567V40.2475H140.789V33.8079H138.479V34.4099C138.506 35.634 138.412 36.8578 138.199 38.0636C138.105 38.7287 137.818 39.3516 137.373 39.8555C136.957 40.2071 136.419 40.3828 135.875 40.3455C135.56 40.3529 135.245 40.3199 134.938 40.2475L135.05 38.8476H135.33C135.556 38.8573 135.78 38.7987 135.973 38.6796C136.183 38.5082 136.339 38.2797 136.421 38.0216C136.604 37.5372 136.707 37.0268 136.729 36.5097C136.729 35.8378 136.827 34.9698 136.827 33.9199V32.212ZM144.485 40.2475V32.212H146.263V34.9418H147.971C148.754 34.8965 149.525 35.1519 150.127 35.6558C150.388 35.8939 150.594 36.1867 150.729 36.5133C150.865 36.8399 150.927 37.1924 150.911 37.5457C150.926 37.9151 150.86 38.2835 150.717 38.6246C150.575 38.9658 150.359 39.2713 150.085 39.5195C149.461 40.0342 148.666 40.2942 147.859 40.2475H144.485ZM147.817 36.4537H146.263V38.6516H147.831C148.713 38.6516 149.147 38.2736 149.147 37.5317C149.147 36.7897 148.713 36.4537 147.747 36.4537H147.817ZM152.268 40.2475V32.212H154.032V35.3898H157.294V32.212H159.058V40.2475H157.294V37.0137H154.032V40.2475H152.268ZM167.947 39.1696C167.122 39.9472 166.03 40.3803 164.896 40.3803C163.761 40.3803 162.67 39.9472 161.844 39.1696C161.45 38.7867 161.138 38.327 160.929 37.8189C160.719 37.3109 160.616 36.7652 160.626 36.2157C160.614 35.6668 160.717 35.1214 160.93 34.615C161.142 34.1085 161.458 33.6523 161.858 33.2759C162.684 32.4983 163.775 32.0652 164.91 32.0652C166.044 32.0652 167.136 32.4983 167.961 33.2759C168.351 33.6615 168.659 34.122 168.866 34.6296C169.073 35.1373 169.175 35.6816 169.165 36.2297C169.175 36.7771 169.072 37.3206 168.862 37.8263C168.653 38.3321 168.341 38.7893 167.947 39.1696ZM163.16 38.0216C163.383 38.2598 163.655 38.4479 163.957 38.5733C164.258 38.6988 164.583 38.7589 164.91 38.7496C165.234 38.7605 165.558 38.7012 165.857 38.5755C166.157 38.4499 166.426 38.2609 166.646 38.0216C167.083 37.5275 167.325 36.89 167.325 36.2297C167.325 35.5695 167.083 34.932 166.646 34.4379C166.423 34.1982 166.152 34.0092 165.85 33.8836C165.548 33.758 165.222 33.6988 164.896 33.7099C164.573 33.6991 164.252 33.7586 163.955 33.8843C163.657 34.0101 163.391 34.1989 163.174 34.4379C162.946 34.6759 162.768 34.957 162.65 35.2647C162.533 35.5724 162.477 35.9005 162.488 36.2297C162.477 36.8931 162.723 37.535 163.174 38.0216H163.16ZM177.691 32.212V40.2475H175.941V34.9838L172.427 40.2475H170.775V32.212H172.511V37.5317L176.053 32.268L177.691 32.212ZM175.563 31.1481C175.191 31.4387 174.733 31.5966 174.261 31.5966C173.789 31.5966 173.331 31.4387 172.959 31.1481C172.602 30.8082 172.378 30.3511 172.329 29.8601L173.351 29.6782C173.389 29.8921 173.501 30.086 173.667 30.2256C173.833 30.3653 174.044 30.4419 174.261 30.4419C174.478 30.4419 174.689 30.3653 174.855 30.2256C175.021 30.086 175.133 29.8921 175.171 29.6782L176.193 29.8601C176.138 30.3494 175.916 30.8046 175.563 31.1481ZM183.067 40.2475V32.212H184.97L187.084 35.6138L189.198 32.212H191.102V40.2475H189.338V34.9978L187.084 38.4276L184.858 35.0398V40.2475H183.067ZM193.02 40.2475V32.212H199.082V33.7799H194.784V35.4178H198.564V36.9857H194.784V38.6796H199.137V40.2475H193.02ZM199.865 41.9274V38.6516H200.649C200.972 37.9128 201.203 37.137 201.335 36.3417C201.48 35.2841 201.545 34.2173 201.531 33.1499V32.212H207.383V38.6516H208.349L208.111 41.9274H206.627V40.2475H201.601L201.489 41.9274H199.865ZM205.577 33.8079H203.211V34.6198C203.231 35.9982 202.984 37.3673 202.483 38.6516H205.577V33.8079ZM216.482 32.212V40.2475H214.733V34.9838L211.219 40.2475H209.553V32.212H211.303V37.5317L214.831 32.268L216.482 32.212ZM224.364 41.9274V40.2475H218.4V32.212H220.248V38.6516H223.412V32.212H225.176V38.6516H226.128L225.848 41.9274H224.364ZM234.163 32.212V40.2475H232.413V34.9838L228.914 40.2475H227.248V32.212H228.984V37.5317L232.525 32.268L234.163 32.212ZM236.095 40.2475V32.212H237.859V35.3898H241.247V32.212H243.011V40.2475H241.247V37.0137H237.985V40.2475H236.095ZM244.817 40.2475V32.212H246.581V34.9418H248.288C249.076 34.8971 249.851 35.1522 250.458 35.6558C250.718 35.8946 250.922 36.1879 251.055 36.5146C251.188 36.8413 251.247 37.1934 251.228 37.5457C251.246 37.914 251.182 38.2818 251.042 38.6228C250.901 38.9639 250.688 39.27 250.416 39.5195C249.787 40.0339 248.988 40.2936 248.176 40.2475H244.817ZM248.246 36.4537H246.679V38.6516H248.246C249.114 38.6516 249.562 38.2736 249.562 37.5317C249.562 36.7897 249.114 36.4537 248.232 36.4537H248.246ZM252.222 40.2475V32.212H254V40.2475H252.222Z" fill="#00B0C8"/>
</svg>
