<svg width="56" height="56" fill="none" xmlns="http://www.w3.org/2000/svg"><path d="M27.998 55.996c15.463 0 27.998-12.535 27.998-27.998C55.996 12.535 43.462 0 27.998 0 12.535 0 0 12.535 0 27.998c0 15.463 12.535 27.998 27.998 27.998z" fill="#00B0C8"/><path fill-rule="evenodd" clip-rule="evenodd" d="M27.959 28.17L26.754 4.766h2.41L27.959 28.17z" fill="#fff"/><path fill-rule="evenodd" clip-rule="evenodd" d="M27.959 27.998L26.754 51.39h2.41l-1.205-23.392z" fill="#fff"/><path fill-rule="evenodd" clip-rule="evenodd" d="M28.011 28.051L10.617 12.364l1.707-1.708 15.687 17.395z" fill="#E3000F"/><path fill-rule="evenodd" clip-rule="evenodd" d="M27.894 27.932l15.7 17.395 1.695-1.708-17.395-15.687z" fill="#fff"/><path fill-rule="evenodd" clip-rule="evenodd" d="M27.985 27.998L4.581 29.19v-2.396l23.404 1.204z" fill="#fff"/><path fill-rule="evenodd" clip-rule="evenodd" d="M27.8 27.998l23.405 1.192v-2.396L27.8 27.998z" fill="#fff"/><path fill-rule="evenodd" clip-rule="evenodd" d="M27.865 27.932L12.178 45.327l-1.707-1.708 17.394-15.687z" fill="#fff"/><path fill-rule="evenodd" clip-rule="evenodd" d="M27.747 28.051L45.14 12.364l-1.707-1.708-15.687 17.395z" fill="#fff"/></svg>