<svg width="254" height="56" fill="none" xmlns="http://www.w3.org/2000/svg"><path d="M27.998 55.996c15.463 0 27.998-12.535 27.998-27.998C55.996 12.535 43.462 0 27.998 0 12.535 0 0 12.535 0 27.998c0 15.463 12.535 27.998 27.998 27.998z" fill="#00B0C8"/><path fill-rule="evenodd" clip-rule="evenodd" d="M27.959 28.17L26.754 4.766h2.41L27.959 28.17z" fill="#fff"/><path fill-rule="evenodd" clip-rule="evenodd" d="M27.959 27.998L26.754 51.39h2.41l-1.205-23.392z" fill="#fff"/><path fill-rule="evenodd" clip-rule="evenodd" d="M28.011 28.051L10.617 12.364l1.707-1.708 15.687 17.395z" fill="#E3000F"/><path fill-rule="evenodd" clip-rule="evenodd" d="M27.894 27.932l15.7 17.395 1.695-1.708-17.395-15.687z" fill="#fff"/><path fill-rule="evenodd" clip-rule="evenodd" d="M27.985 27.998L4.581 29.19v-2.396l23.404 1.204z" fill="#fff"/><path fill-rule="evenodd" clip-rule="evenodd" d="M27.8 27.998l23.405 1.192v-2.396L27.8 27.998z" fill="#fff"/><path fill-rule="evenodd" clip-rule="evenodd" d="M27.865 27.932L12.178 45.327l-1.707-1.708 17.394-15.687z" fill="#fff"/><path fill-rule="evenodd" clip-rule="evenodd" d="M27.747 28.051L45.14 12.364l-1.707-1.708-15.687 17.395z" fill="#fff"/><path fill-rule="evenodd" clip-rule="evenodd" d="M71.858 24.666a3.963 3.963 0 01-2.94-1.203 4.2 4.2 0 012.94-7.112 4.199 4.199 0 011.763.336c.524.236 1 .568 1.4.98l-1.05 1.204a4.34 4.34 0 00-.966-.672 2.632 2.632 0 00-1.147-.266 2.143 2.143 0 00-1.666.742 2.575 2.575 0 00-.658 1.792c-.014.659.22 1.298.658 1.792a2.129 2.129 0 001.666.728c.385.011.768-.065 1.12-.224.362-.192.697-.432.993-.714l1.134 1.204a4.48 4.48 0 01-1.4 1.035 4.633 4.633 0 01-1.876.337l.029.041zm4.703-.14v-7.993h6.062v1.568h-4.354v1.638h3.78v1.568h-3.78v1.68h4.354v1.582l-6.062-.043zm7.7 0v-7.993h3.724a2.799 2.799 0 012.1.714 1.835 1.835 0 01.56 1.4 1.89 1.89 0 01-1.065 1.736c.438.14.83.397 1.134.742.266.36.4.8.378 1.246a1.877 1.877 0 01-.812 1.652 3.837 3.837 0 01-2.198.56l-3.821-.056zm1.722-4.787h1.623c.855 0 1.274-.294 1.274-.868a.699.699 0 00-.293-.616 1.498 1.498 0 00-.868-.21h-1.792v1.694h.056zm0 3.234h2.1c.825 0 1.245-.294 1.245-.896 0-.602-.434-.868-1.302-.868h-2.1v1.764h.057zm6.565 1.553v-7.993h6.062v1.568h-4.354v1.638h3.78v1.568h-3.78v1.68h4.368v1.582l-6.076-.043zm7.686 0v-7.993h3.29a3.135 3.135 0 012.239.77 2.605 2.605 0 01.77 2.03 2.515 2.515 0 01-.91 2.086 3.624 3.624 0 01-2.337.742h-1.4v2.407l-1.652-.042zm1.764-3.99h1.4a1.48 1.48 0 001.035-.335 1.158 1.158 0 00.364-.896 1.12 1.12 0 00-.378-.91 1.592 1.592 0 00-1.049-.308h-1.4v2.45h.028zm12.865 2.913a4.453 4.453 0 01-6.104 0 4.014 4.014 0 01-1.218-2.954 3.986 3.986 0 011.232-2.94 4.453 4.453 0 016.104 0 4.198 4.198 0 010 5.894h-.014zm-4.774-1.148a2.44 2.44 0 002.677.538 2.44 2.44 0 00.795-.538 2.55 2.55 0 00.672-1.792 2.523 2.523 0 00-.686-1.792 2.282 2.282 0 00-1.792-.784 2.24 2.24 0 00-1.736.742 2.662 2.662 0 000 3.584l.07.042zm7.182-.49v-1.68h3.527v1.68h-3.527zm7.923-5.46a3.458 3.458 0 012.1.602 1.854 1.854 0 01.812 1.554 1.916 1.916 0 01-1.302 1.848 1.89 1.89 0 011.512 1.89 2.108 2.108 0 01-.84 1.736 3.318 3.318 0 01-2.212.686 5.604 5.604 0 01-2.072-.337 4.579 4.579 0 01-1.498-1.007l.938-1.232a3.509 3.509 0 002.562 1.022c.34.014.676-.074.966-.252a.833.833 0 00.294-.728.761.761 0 00-.42-.714 2.55 2.55 0 00-1.176-.224h-.924v-1.456h.91c.952 0 1.4-.308 1.4-.938a.72.72 0 00-.35-.644 1.61 1.61 0 00-.84-.224 2.899 2.899 0 00-2.17.882l-.938-1.134a4.2 4.2 0 013.234-1.316l.014-.014zm3.962 8.175l3.444-8.091h1.638l3.415 8.091h-1.876l-.741-1.805h-3.388l-.742 1.805h-1.75zm3.178-3.36h2.128l-1.064-2.617-1.064 2.618zm6.579 3.36v-7.993h6.706v8.035h-1.764v-6.44h-3.164v6.44l-1.778-.042zm7.952 0l3.388-8.091h1.623l3.444 8.091h-1.848l-.728-1.805h-3.401l-.742 1.805h-1.736zm3.164-3.36h2.127l-1.063-2.617-1.064 2.618zm5.739 5.04v-3.275h.756c.318-.74.544-1.516.672-2.31a19.48 19.48 0 00.21-3.192v-.896h5.838v6.44h.966l-.224 3.275h-1.484v-1.68h-5.026l-.112 1.68-1.596-.042zm5.712-8.12h-2.38v.813a10.681 10.681 0 01-.714 4.032h3.066v-4.844h.028zm3.976 6.44v-7.993h1.764v3.178h3.261v-3.178h1.764v8.035h-1.764v-3.275h-3.261v3.233h-1.764zm8.721 0v-7.993h1.764v2.73h1.708a3.178 3.178 0 012.17.7 2.456 2.456 0 01.77 1.904 2.53 2.53 0 01-.812 1.973 3.29 3.29 0 01-2.24.729l-3.36-.043zm3.276-3.793h-1.568v2.198h1.582c.882 0 1.316-.378 1.316-1.12 0-.742-.448-1.078-1.33-1.078zm3.976 3.793v-7.993h1.777v8.035l-1.777-.042zm10.625-7.993v8.035h-1.75v-5.32l-3.514 5.278h-1.666v-7.993h1.75v5.264l3.542-5.264h1.638zm-2.128-1.064a1.959 1.959 0 01-1.302.448 1.905 1.905 0 01-1.302-.448 1.99 1.99 0 01-.63-1.288l1.022-.182a.914.914 0 00.903.797.908.908 0 00.903-.797l1.022.182a2.04 2.04 0 01-.616 1.288zm13.453 10.78v-1.68h-5.949v-8.036h1.819v6.44h3.164v-6.44h1.764v6.44h.952l-.28 3.233-1.47.042zm2.94-1.68v-8.036h6.062v1.568h-4.312v1.638h3.78v1.568h-3.78v1.68h4.368v1.582h-6.118zm7.686 0v-8.036h1.777v3.178h3.248v-3.178h1.778v8.035h-1.778v-3.275h-3.248v3.233l-1.777.043zm10.597 0v-6.454h-2.45v-1.582h6.664v1.624h-2.45v6.412h-1.764zm5.6 0v-8.036h3.275a3.15 3.15 0 012.254.77 2.636 2.636 0 01.826 2.03 2.524 2.524 0 01-.924 2.086 3.583 3.583 0 01-2.324.742h-1.4v2.407h-1.707zm1.763-3.99h1.4a1.402 1.402 0 001.022-.336 1.165 1.165 0 00.378-.896 1.12 1.12 0 00-.378-.91 1.593 1.593 0 00-1.05-.308h-1.4v2.45h.028zM67.195 41.927v-3.275h.757c.312-.742.537-1.517.672-2.31.157-1.057.227-2.124.21-3.192v-.938h5.823v6.44h.966l-.224 3.275h-1.47v-1.68h-5.025l-.112 1.68h-1.596zm5.712-8.12h-2.38v.813a10.681 10.681 0 01-.713 4.032h3.093v-4.844zm10.934 5.363a4.452 4.452 0 01-6.104 0 4.018 4.018 0 01-1.218-2.954 3.919 3.919 0 011.232-2.94 4.452 4.452 0 016.104 0 4.06 4.06 0 011.204 2.954 3.99 3.99 0 01-1.218 2.94zm-4.788-1.148a2.309 2.309 0 001.75.728 2.254 2.254 0 001.736-.728 2.702 2.702 0 000-3.584 2.28 2.28 0 00-1.75-.728 2.225 2.225 0 00-1.722.728 2.476 2.476 0 00-.686 1.792 2.58 2.58 0 00.686 1.792h-.014zm7.588 2.226v-8.036h1.763v3.514l3.262-3.514h2.128l-3.262 3.402 3.416 4.634H91.82l-2.492-3.416-.924.952v2.464h-1.763zm7.685 0l3.444-8.092h1.624l3.444 8.092h-1.848l-.728-1.806H96.86l-.728 1.806h-1.806zm3.164-3.36h2.142l-1.078-2.604-1.064 2.604zm9.449-4.816a3.43 3.43 0 012.1.616 1.84 1.84 0 01.798 1.54 1.908 1.908 0 01-1.288 1.904 1.888 1.888 0 011.498 1.904 2.12 2.12 0 01-.826 1.721 3.388 3.388 0 01-2.226.575 5.6 5.6 0 01-2.058-.337 4.474 4.474 0 01-1.511-1.007l.937-1.232a3.518 3.518 0 002.562 1.022c.34.014.677-.074.966-.252a.822.822 0 00.392-.714.756.756 0 00-.434-.714 2.45 2.45 0 00-1.162-.224h-.924V35.46h.896c.966 0 1.4-.308 1.4-.924a.754.754 0 00-.364-.658 1.581 1.581 0 00-.938-.238 2.909 2.909 0 00-2.17.882l-.881-1.19a4.303 4.303 0 013.233-1.316v.056zm3.962 8.175l3.444-8.091h1.624l3.486 8.092h-1.89l-.728-1.806h-3.402l-.728 1.806h-1.806zm3.164-3.36h2.142l-1.078-2.603-1.064 2.604zm8.399 3.36v-6.411h-2.38v-1.624h6.65v1.624h-2.436v6.412h-1.834zm5.6 0v-8.035h6.09v1.568h-4.298v1.638h3.78v1.568h-3.78v1.694h4.354v1.568h-6.146zm8.763-8.035h5.74v8.035h-1.778v-6.44h-2.31v.603a18.641 18.641 0 01-.28 3.654 3.432 3.432 0 01-.826 1.791 2.1 2.1 0 01-1.498.49 3.704 3.704 0 01-.937-.097l.112-1.4h.28c.226.01.45-.05.643-.168.21-.172.366-.4.448-.658.183-.485.286-.995.308-1.512 0-.672.098-1.54.098-2.59v-1.708zm7.658 8.035v-8.035h1.778v2.73h1.708a3.082 3.082 0 012.156.714 2.405 2.405 0 01.784 1.89 2.526 2.526 0 01-.826 1.974 3.207 3.207 0 01-2.226.727h-3.374zm3.332-3.793h-1.554v2.198h1.568c.882 0 1.316-.378 1.316-1.12 0-.742-.434-1.078-1.4-1.078h.07zm4.451 3.794v-8.036h1.764v3.178h3.262v-3.178h1.764v8.035h-1.764v-3.233h-3.262v3.233h-1.764zm15.679-1.078a4.45 4.45 0 01-6.103 0 4.014 4.014 0 01-1.218-2.954 3.913 3.913 0 011.232-2.94 4.452 4.452 0 016.103 0 4.06 4.06 0 011.204 2.954 3.973 3.973 0 01-1.218 2.94zm-4.787-1.148a2.3 2.3 0 001.75.728 2.251 2.251 0 001.736-.728 2.706 2.706 0 000-3.584 2.286 2.286 0 00-1.75-.728 2.223 2.223 0 00-1.722.728 2.477 2.477 0 00-.686 1.792 2.574 2.574 0 00.686 1.792h-.014zm14.531-5.81v8.035h-1.75v-5.263l-3.514 5.264h-1.652v-8.036h1.736v5.32l3.542-5.264 1.638-.056zm-2.128-1.064a2.114 2.114 0 01-2.604 0 2.062 2.062 0 01-.63-1.288l1.022-.182a.928.928 0 00.91.764.924.924 0 00.91-.764l1.022.182c-.055.49-.277.945-.63 1.288zm7.504 9.1v-8.036h1.903l2.114 3.402 2.114-3.402h1.904v8.035h-1.764v-5.25l-2.254 3.43-2.226-3.387v5.208h-1.791zm9.953 0v-8.036h6.062v1.568h-4.298v1.638h3.78v1.568h-3.78v1.694h4.353v1.568h-6.117zm6.845 1.68v-3.276h.784a9.754 9.754 0 00.686-2.31c.145-1.058.21-2.125.196-3.192v-.938h5.852v6.44h.966l-.238 3.275h-1.484v-1.68h-5.026l-.112 1.68h-1.624zm5.712-8.12h-2.366v.812a10.667 10.667 0 01-.728 4.032h3.094v-4.844zm10.905-1.596v8.035h-1.749v-5.263l-3.514 5.264h-1.666v-8.036h1.75v5.32l3.528-5.264 1.651-.056zm7.882 9.715v-1.68H218.4v-8.035h1.848v6.44h3.164v-6.44h1.764v6.44h.952l-.28 3.275h-1.484zm9.799-9.715v8.035h-1.75v-5.263l-3.499 5.264h-1.666v-8.036h1.736v5.32l3.541-5.264 1.638-.056zm1.932 8.035v-8.035h1.764v3.178h3.388v-3.178h1.764v8.035h-1.764v-3.233h-3.262v3.233h-1.89zm8.722 0v-8.035h1.764v2.73h1.707a3.121 3.121 0 012.17.714 2.39 2.39 0 01.77 1.89 2.514 2.514 0 01-.812 1.974 3.247 3.247 0 01-2.24.727h-3.359zm3.429-3.793h-1.567v2.198h1.567c.868 0 1.316-.378 1.316-1.12 0-.742-.448-1.078-1.33-1.078h.014zm3.976 3.794v-8.036H254v8.035h-1.778z" fill="#00B0C8"/></svg>